<mxfile host="app.diagrams.net" agent="Mozilla/5.0 (Windows NT 10.0; Win64; x64) AppleWebKit/537.36 (KHTML, like Gecko) Chrome/139.0.0.0 Safari/537.36" version="28.1.0">
  <diagram id="UML1" name="UML">
    <mxGraphModel dx="1042" dy="527" grid="1" gridSize="10" guides="1" tooltips="1" connect="1" arrows="1" fold="1" page="1" pageScale="1" pageWidth="827" pageHeight="1169" math="0" shadow="0">
      <root>
        <mxCell id="0" />
        <mxCell id="1" parent="0" />
        <mxCell id="cat" value="Category&#xa;+ categoryId:int&#xa;+ name:string&#xa;+ description:string&#xa;+ addAttribute()&#xa;+ getAttributes()&#xa;+ getProducts()" style="shape=rectangle;whiteSpace=wrap;rounded=1;fillColor=#dae8fc;strokeColor=#6c8ebf;" parent="1" vertex="1">
          <mxGeometry x="40" y="70" width="220" height="140" as="geometry" />
        </mxCell>
        <mxCell id="attr" value="Attribute&#xa;+ attributeId:int&#xa;+ name:string&#xa;+ dataType:enum&#xa;+ validateValue()" style="shape=rectangle;whiteSpace=wrap;rounded=1;fillColor=#fff2cc;strokeColor=#d6b656;" parent="1" vertex="1">
          <mxGeometry x="300" y="170" width="200" height="120" as="geometry" />
        </mxCell>
        <mxCell id="catattr" value="CategoryAttribute&#xa;+ categoryAttributeId:int&#xa;+ isRequired:bool&#xa;+ isRequired()&#xa;+ getAttributeDetails()" style="shape=rectangle;whiteSpace=wrap;rounded=1;fillColor=#f8cecc;strokeColor=#b85450;" parent="1" vertex="1">
          <mxGeometry x="540" y="70" width="240" height="120" as="geometry" />
        </mxCell>
        <mxCell id="prod" value="Product&#xa;+ productId:int&#xa;+ name:string&#xa;+ sku:string&#xa;+ price:decimal&#xa;+ createdAt:datetime&#xa;+ updatedAt:datetime&#xa;+ addAttributeValue()&#xa;+ getAttributeValues()&#xa;+ updatePrice()" style="shape=rectangle;whiteSpace=wrap;rounded=1;fillColor=#d5e8d4;strokeColor=#82b366;" parent="1" vertex="1">
          <mxGeometry x="20" y="340" width="300" height="180" as="geometry" />
        </mxCell>
        <mxCell id="pav" value="ProductAttributeValue&#xa;+ productAttributeValueId:int&#xa;+ value:any&#xa;+ validateValue()&#xa;+ formatValue()" style="shape=rectangle;whiteSpace=wrap;rounded=1;fillColor=#e1d5e7;strokeColor=#9673a6;" parent="1" vertex="1">
          <mxGeometry x="420" y="380" width="260" height="140" as="geometry" />
        </mxCell>
        <mxCell id="e1" style="endArrow=block;" parent="1" source="cat" target="prod" edge="1">
          <mxGeometry relative="1" as="geometry" />
        </mxCell>
        <mxCell id="e2" style="endArrow=block;" parent="1" source="cat" edge="1">
          <mxGeometry relative="1" as="geometry">
            <mxPoint x="540" y="120" as="targetPoint" />
          </mxGeometry>
        </mxCell>
        <mxCell id="e3" style="endArrow=block;entryX=0;entryY=0.583;entryDx=0;entryDy=0;entryPerimeter=0;" parent="1" source="attr" target="catattr" edge="1">
          <mxGeometry relative="1" as="geometry" />
        </mxCell>
        <mxCell id="e4" style="endArrow=block;" parent="1" source="prod" target="pav" edge="1">
          <mxGeometry relative="1" as="geometry" />
        </mxCell>
        <mxCell id="e5" style="endArrow=block;" parent="1" source="catattr" target="pav" edge="1">
          <mxGeometry relative="1" as="geometry" />
        </mxCell>
      </root>
    </mxGraphModel>
  </diagram>
</mxfile>
